<?xml version="1.0" encoding="utf-8"?>
<!-- Generator: Adobe Illustrator 26.3.1, SVG Export Plug-In . SVG Version: 6.00 Build 0)  -->
<svg version="1.2" baseProfile="tiny" id="Layer_1" xmlns="http://www.w3.org/2000/svg" xmlns:xlink="http://www.w3.org/1999/xlink"
	 x="0px" y="0px" width="850px" height="425px" viewBox="0 0 850 425" overflow="visible" xml:space="preserve">
<g>
	<path fill="#F2A301" d="M278.01,266.07V61.46H83.75v204.62c0,10.45,1.3,17.5,19.3,27.36c8.36,4.57,17.11,8.38,25.61,12.07
		c6.3,2.74,12.25,5.33,17.22,7.91c8.47,4.4,19.38,12.09,26.61,17.18c1.96,1.38,4.08,2.88,5.59,3.9l2.8,1.89l2.8-1.89
		c1.51-1.02,3.63-2.52,5.6-3.9c7.22-5.09,18.14-12.79,26.6-17.18c4.98-2.58,10.93-5.17,17.24-7.92c8.47-3.68,17.23-7.49,25.59-12.07
		C276.71,283.58,278.01,276.52,278.01,266.07"/>
	<path fill="#F2A301" d="M97.86,332.69c-1.44-4.68-4.51-12.19-21.42-12.44c-19.17-0.29-17.44,4.79-17.44,6.2
		c0,1.42,4.12,5.81,14.32,9.68l-1.04-10.45c8.5-2.48,15.8-1.21,19.69,3.89l0.91,7.37C95.24,335.47,98.34,334.24,97.86,332.69
		 M90.9,332.69c-9.36,11.54-24.52,3.85-31.86-3.85l3.23,15.4c14.74-2.06,22.82-3.18,29.06-6.69L90.9,332.69z M90.54,330.28
		c-2.62-3.83-6.52-5.53-16.68-3.83l0.87,10.08C79.7,337.69,87.07,336.94,90.54,330.28 M59.57,358.52c7.65-3.43,28.91-10,39.55-12.23
		l-1.26-10.82c-2.81,2.16-8.67,6.43-21.71,8.13c-13.04,1.7-18.57,2.83-23.24,5.5c-4.4,2.51-7.48,6.66-7.48,9.41
		C45.43,361.28,51.92,361.95,59.57,358.52 M302.8,326.45c0-1.42,1.72-6.49-17.44-6.2c-16.91,0.25-19.98,7.76-21.42,12.44
		c-0.48,1.55,2.62,2.78,4.98,4.25l0.91-7.37c3.89-5.1,11.18-6.38,19.69-3.89l-1.04,10.45C298.68,332.26,302.8,327.87,302.8,326.45
		 M270.9,332.69l-0.43,4.85c6.24,3.51,14.32,4.63,29.06,6.69l3.23-15.4C295.42,336.54,280.25,344.23,270.9,332.69 M287.05,336.54
		l0.87-10.08c-10.16-1.7-14.05,0-16.68,3.83C274.72,336.94,282.09,337.69,287.05,336.54 M316.36,358.52c0-2.76-3.09-6.9-7.48-9.41
		c-4.68-2.67-10.2-3.8-23.24-5.5c-13.04-1.7-18.89-5.97-21.71-8.13l-1.26,10.82c10.64,2.23,31.9,8.8,39.55,12.23
		C309.87,361.95,316.36,361.28,316.36,358.52 M317.35,360.6c-2.1,3.29-9.47,1.32-11.45,0.82c-1.98-0.5-42.1-21.37-125.01-21.37
		c-82.91,0-123.02,20.87-125.01,21.37c-1.98,0.51-9.36,2.47-11.45-0.82c0,9.42,3.23,21.98,13.43,30.73
		c37.7-19.03,100.36-21.22,123.02-21.22c22.66,0,85.32,2.19,123.02,21.22C314.12,382.58,317.35,370.02,317.35,360.6"/>
</g>
<rect x="93.64" y="71.46" fill="#AC1F2A" width="174.26" height="39.32"/>
<g>
	<path fill="#191346" d="M267.9,120.78H93.64v145.3c0,7.46,0,10.87,14.1,18.58c7.96,4.35,16.5,8.35,24.76,11.95
		c6.49,2.82,12.6,5.33,17.88,8.08c9.07,4.71,20.32,12.5,27.76,17.74c0.87,0.61,1.77,1.24,2.63,1.85c0.86-0.6,1.76-1.24,2.63-1.85
		c7.45-5.25,18.7-13.04,27.76-17.74c5.28-2.74,11.38-5.25,17.85-8.06c8.28-3.6,16.83-7.6,24.8-11.96
		c14.1-7.72,14.1-11.12,14.1-18.58V120.78z"/>
	<path fill="#FFFFFF" d="M258.97,145.55c-0.16-0.02-0.39-0.05-0.68-0.11c-0.29-0.05-0.51-0.11-0.64-0.16
		c-0.25-0.12-0.42-0.25-0.5-0.41c-0.08-0.16-0.12-0.35-0.12-0.59v-9.73c0-0.22,0.04-0.42,0.12-0.6c0.08-0.18,0.25-0.31,0.5-0.4
		c0.21-0.06,0.42-0.12,0.65-0.15c0.23-0.04,0.44-0.06,0.65-0.08v-0.76h-6.09c-0.01,0.12-0.05,0.36-0.14,0.74
		c-0.09,0.38-0.18,0.7-0.28,0.97l-2.85,7.35l-3.39-9.05h-6.33v0.76c0.28,0.02,0.55,0.06,0.82,0.12c0.27,0.06,0.54,0.19,0.79,0.39
		c0.21,0.16,0.36,0.38,0.46,0.65c0.1,0.27,0.15,0.62,0.15,1.03v6.81c0,0.79-0.04,1.4-0.14,1.83c-0.09,0.43-0.26,0.74-0.52,0.92
		c-0.23,0.17-0.53,0.29-0.9,0.35c-0.36,0.07-0.63,0.11-0.79,0.13v0.76h5.91v-0.76c-0.17-0.02-0.46-0.09-0.88-0.21
		c-0.42-0.12-0.71-0.25-0.87-0.39c-0.24-0.19-0.41-0.5-0.52-0.92c-0.11-0.42-0.16-1.02-0.16-1.82v-8.36l3.48,9.44
		c0.14,0.38,0.33,0.89,0.56,1.52c0.23,0.63,0.37,1.06,0.43,1.27h1.22l4.73-12.07v10.26c0,0.26-0.05,0.47-0.15,0.64
		c-0.1,0.17-0.28,0.3-0.51,0.4c-0.12,0.05-0.33,0.1-0.65,0.15c-0.32,0.05-0.59,0.08-0.81,0.1v0.76h7.45V145.55z M228.6,140.75
		l1.96-4.97l1.99,4.97H228.6z M239.76,145.55c-0.19-0.01-0.41-0.05-0.65-0.1c-0.24-0.05-0.45-0.13-0.63-0.23
		c-0.24-0.14-0.42-0.29-0.55-0.45c-0.13-0.16-0.24-0.33-0.32-0.53c-0.5-1.19-1.11-2.68-1.83-4.49c-0.72-1.81-1.71-4.27-2.97-7.38
		h-1.94c-0.91,2.2-1.74,4.2-2.49,6.02c-0.75,1.82-1.5,3.64-2.25,5.45c-0.12,0.31-0.28,0.58-0.46,0.8c-0.18,0.23-0.41,0.42-0.67,0.57
		c-0.15,0.1-0.37,0.17-0.63,0.23c-0.27,0.05-0.51,0.09-0.72,0.1v0.76h5.63v-0.76c-0.73-0.06-1.25-0.17-1.56-0.31
		c-0.31-0.15-0.47-0.32-0.47-0.53c0-0.06,0.01-0.18,0.03-0.34c0.02-0.16,0.09-0.42,0.22-0.78c0.1-0.28,0.21-0.59,0.34-0.95
		c0.13-0.36,0.25-0.67,0.36-0.93h4.74l1.17,2.85c0.04,0.11,0.07,0.2,0.08,0.26c0.01,0.06,0.01,0.12,0.01,0.17
		c0,0.15-0.24,0.27-0.71,0.37c-0.47,0.1-0.88,0.16-1.23,0.19v0.76h7.48V145.55z M223.82,145.55c-0.19-0.01-0.43-0.05-0.72-0.1
		c-0.29-0.05-0.52-0.11-0.67-0.17c-0.25-0.11-0.41-0.25-0.49-0.41c-0.08-0.16-0.13-0.36-0.13-0.59v-9.73c0-0.21,0.04-0.41,0.13-0.59
		s0.25-0.31,0.49-0.4c0.21-0.06,0.44-0.12,0.7-0.16c0.26-0.04,0.49-0.07,0.7-0.08v-0.76h-7.43v0.76c0.17,0.02,0.39,0.06,0.67,0.13
		c0.28,0.07,0.51,0.14,0.67,0.22c0.25,0.12,0.42,0.25,0.5,0.41c0.08,0.16,0.13,0.35,0.13,0.57v4.01h-5.87v-4.11
		c0-0.21,0.04-0.4,0.12-0.59c0.08-0.18,0.25-0.32,0.5-0.4c0.15-0.04,0.36-0.09,0.64-0.14c0.28-0.05,0.52-0.08,0.72-0.1v-0.76h-7.43
		v0.76c0.13,0.01,0.35,0.05,0.66,0.12c0.3,0.07,0.55,0.14,0.74,0.23c0.25,0.12,0.42,0.25,0.5,0.41c0.08,0.16,0.12,0.35,0.12,0.57
		v9.72c0,0.23-0.05,0.43-0.14,0.6c-0.09,0.17-0.25,0.3-0.48,0.38c-0.14,0.05-0.37,0.09-0.68,0.13c-0.31,0.04-0.55,0.06-0.71,0.06
		v0.76h7.43v-0.76c-0.19-0.01-0.43-0.05-0.73-0.11c-0.3-0.06-0.51-0.11-0.63-0.16c-0.23-0.1-0.38-0.23-0.48-0.41
		c-0.09-0.18-0.14-0.37-0.14-0.59v-4.63h5.87v4.73c0,0.25-0.04,0.45-0.14,0.61c-0.09,0.16-0.26,0.29-0.49,0.38
		c-0.12,0.05-0.33,0.09-0.64,0.12c-0.31,0.03-0.55,0.05-0.71,0.06v0.76h7.43V145.55z M205.69,132.57h-5.9v0.76
		c0.23,0.04,0.52,0.11,0.89,0.22c0.37,0.11,0.65,0.23,0.83,0.38c0.24,0.19,0.41,0.49,0.52,0.9c0.11,0.4,0.17,1.02,0.17,1.84v5.2
		l-7.51-9.29h-5.17v0.77c0.38,0.07,0.71,0.17,1,0.3c0.29,0.12,0.55,0.3,0.78,0.52c0.21,0.21,0.37,0.45,0.47,0.74
		c0.1,0.29,0.15,0.59,0.15,0.91v6.51c0,0.89-0.05,1.52-0.14,1.9c-0.09,0.38-0.27,0.66-0.52,0.85c-0.22,0.15-0.49,0.27-0.82,0.34
		s-0.62,0.12-0.87,0.14v0.76h5.91v-0.76c-0.23-0.04-0.53-0.11-0.91-0.22c-0.38-0.11-0.66-0.24-0.83-0.38
		c-0.24-0.19-0.41-0.5-0.52-0.92c-0.11-0.42-0.16-1.02-0.16-1.82v-6.45l8.56,10.62h1.72v-9.82c0-0.82,0.05-1.44,0.15-1.86
		c0.1-0.42,0.27-0.72,0.51-0.9c0.27-0.2,0.57-0.33,0.91-0.38c0.33-0.05,0.59-0.09,0.77-0.11V132.57z M187.49,132.57h-12.18v0.76
		c0.16,0.02,0.38,0.06,0.69,0.13c0.3,0.06,0.54,0.14,0.71,0.21c0.27,0.12,0.44,0.26,0.51,0.41c0.07,0.15,0.11,0.34,0.11,0.58v9.69
		c0,0.25-0.04,0.45-0.13,0.61s-0.25,0.29-0.49,0.39c-0.13,0.05-0.35,0.1-0.66,0.14c-0.31,0.04-0.56,0.06-0.74,0.08v0.76h12.89
		l0.26-4.28h-0.71c-0.12,0.32-0.38,0.81-0.76,1.46c-0.39,0.65-0.74,1.13-1.04,1.45c-0.12,0.12-0.29,0.22-0.53,0.28
		c-0.24,0.07-0.49,0.11-0.76,0.15c-0.24,0.03-0.52,0.05-0.83,0.06c-0.32,0.01-0.59,0.01-0.81,0.01c-0.48,0-0.87-0.02-1.15-0.06
		c-0.28-0.04-0.5-0.12-0.66-0.24c-0.17-0.13-0.28-0.31-0.34-0.56c-0.06-0.24-0.09-0.57-0.09-0.98v-3.96h1.41
		c0.38,0,0.72,0.04,1.01,0.13c0.29,0.09,0.54,0.25,0.76,0.48c0.14,0.15,0.29,0.44,0.45,0.85c0.16,0.41,0.26,0.75,0.29,1.02h0.74
		v-5.73h-0.74c-0.04,0.28-0.14,0.6-0.29,0.98c-0.15,0.37-0.3,0.64-0.45,0.78c-0.24,0.24-0.5,0.4-0.79,0.48
		c-0.29,0.08-0.61,0.13-0.97,0.13h-1.41v-5.3h1.99c0.23,0,0.51,0.01,0.86,0.01c0.35,0.01,0.62,0.04,0.81,0.08
		c0.45,0.1,0.91,0.41,1.37,0.95c0.46,0.53,0.78,1.06,0.97,1.58h0.74V132.57z M174.12,132.57h-13.31v3.93h0.76
		c0.2-0.59,0.52-1.22,0.96-1.89c0.44-0.67,0.85-1.03,1.22-1.08c0.21-0.03,0.46-0.05,0.76-0.07c0.3-0.02,0.56-0.03,0.78-0.03h0.45
		v10.87c0,0.24-0.04,0.45-0.12,0.62c-0.08,0.17-0.25,0.31-0.5,0.42c-0.12,0.05-0.35,0.1-0.69,0.13c-0.34,0.04-0.6,0.06-0.79,0.08
		v0.76h7.66v-0.76c-0.22-0.02-0.49-0.07-0.8-0.13c-0.31-0.06-0.54-0.12-0.69-0.18c-0.25-0.1-0.41-0.24-0.49-0.42
		c-0.08-0.18-0.12-0.38-0.12-0.61v-10.78h0.45c0.22,0,0.48,0.01,0.78,0.03c0.3,0.02,0.56,0.04,0.76,0.07
		c0.37,0.05,0.78,0.41,1.22,1.08c0.44,0.67,0.76,1.3,0.96,1.89h0.76V132.57z M161.36,141.9c-0.21,0.5-0.48,1.04-0.83,1.64
		c-0.35,0.6-0.68,1.06-1.01,1.39c-0.21,0.21-0.56,0.34-1.05,0.4c-0.49,0.06-0.99,0.09-1.51,0.09c-0.53,0-0.94-0.02-1.24-0.05
		c-0.3-0.04-0.53-0.11-0.7-0.24c-0.17-0.12-0.28-0.3-0.34-0.54s-0.09-0.58-0.09-1.01v-9.03c0-0.23,0.04-0.43,0.13-0.61
		c0.08-0.18,0.25-0.31,0.5-0.39c0.21-0.06,0.45-0.11,0.73-0.15c0.28-0.04,0.52-0.06,0.73-0.08v-0.76h-7.54v0.76
		c0.17,0.03,0.39,0.07,0.67,0.12c0.28,0.05,0.52,0.13,0.72,0.22c0.27,0.12,0.44,0.26,0.51,0.41c0.07,0.15,0.11,0.34,0.11,0.58v9.69
		c0,0.25-0.04,0.46-0.14,0.62c-0.09,0.16-0.25,0.29-0.48,0.38c-0.1,0.04-0.3,0.08-0.6,0.12c-0.3,0.04-0.57,0.07-0.79,0.09v0.76
		h12.65l0.27-4.41H161.36z M147.02,132.57h-12.18v0.76c0.15,0.02,0.38,0.06,0.69,0.13c0.3,0.06,0.54,0.14,0.71,0.21
		c0.27,0.12,0.44,0.26,0.51,0.41c0.07,0.15,0.11,0.34,0.11,0.58v9.69c0,0.25-0.04,0.45-0.13,0.61s-0.25,0.29-0.49,0.39
		c-0.13,0.05-0.35,0.1-0.66,0.14c-0.31,0.04-0.56,0.06-0.74,0.08v0.76h12.89l0.26-4.28h-0.71c-0.12,0.32-0.38,0.81-0.77,1.46
		c-0.39,0.65-0.73,1.13-1.04,1.45c-0.12,0.12-0.29,0.22-0.53,0.28c-0.24,0.07-0.49,0.11-0.76,0.15c-0.24,0.03-0.52,0.05-0.83,0.06
		c-0.32,0.01-0.59,0.01-0.81,0.01c-0.48,0-0.87-0.02-1.15-0.06c-0.28-0.04-0.5-0.12-0.66-0.24c-0.17-0.13-0.28-0.31-0.34-0.56
		c-0.06-0.24-0.09-0.57-0.09-0.98v-3.96h1.41c0.38,0,0.72,0.04,1.01,0.13c0.29,0.09,0.54,0.25,0.76,0.48
		c0.14,0.15,0.29,0.44,0.45,0.85c0.16,0.41,0.26,0.75,0.3,1.02h0.74v-5.73h-0.74c-0.05,0.28-0.14,0.6-0.3,0.98
		c-0.15,0.37-0.3,0.64-0.45,0.78c-0.24,0.24-0.5,0.4-0.79,0.48c-0.29,0.08-0.61,0.13-0.97,0.13h-1.41v-5.3h1.99
		c0.23,0,0.51,0.01,0.86,0.01c0.35,0.01,0.62,0.04,0.81,0.08c0.45,0.1,0.91,0.41,1.36,0.95c0.46,0.53,0.78,1.06,0.97,1.58h0.74
		V132.57z M133.01,145.55c-0.19-0.01-0.43-0.05-0.72-0.1c-0.29-0.05-0.52-0.11-0.67-0.17c-0.25-0.11-0.41-0.25-0.49-0.41
		c-0.08-0.16-0.13-0.36-0.13-0.59v-9.73c0-0.21,0.04-0.41,0.13-0.59s0.25-0.31,0.49-0.4c0.21-0.06,0.44-0.12,0.7-0.16
		c0.26-0.04,0.49-0.07,0.7-0.08v-0.76h-7.43v0.76c0.17,0.02,0.39,0.06,0.67,0.13c0.28,0.07,0.51,0.14,0.67,0.22
		c0.25,0.12,0.42,0.25,0.5,0.41c0.08,0.16,0.13,0.35,0.13,0.57v4.01h-5.87v-4.11c0-0.21,0.04-0.4,0.12-0.59
		c0.08-0.18,0.25-0.32,0.5-0.4c0.15-0.04,0.36-0.09,0.64-0.14c0.28-0.05,0.52-0.08,0.72-0.1v-0.76h-7.43v0.76
		c0.14,0.01,0.36,0.05,0.66,0.12c0.3,0.07,0.55,0.14,0.74,0.23c0.25,0.12,0.42,0.25,0.5,0.41c0.08,0.16,0.12,0.35,0.12,0.57v9.72
		c0,0.23-0.05,0.43-0.14,0.6c-0.09,0.17-0.25,0.3-0.48,0.38c-0.14,0.05-0.37,0.09-0.68,0.13c-0.31,0.04-0.55,0.06-0.71,0.06v0.76
		h7.43v-0.76c-0.19-0.01-0.43-0.05-0.73-0.11c-0.3-0.06-0.51-0.11-0.63-0.16c-0.23-0.1-0.38-0.23-0.48-0.41
		c-0.09-0.18-0.14-0.37-0.14-0.59v-4.63h5.87v4.73c0,0.25-0.04,0.45-0.14,0.61c-0.09,0.16-0.25,0.29-0.49,0.38
		c-0.12,0.05-0.33,0.09-0.64,0.12c-0.31,0.03-0.55,0.05-0.71,0.06v0.76h7.43V145.55z M111.94,146.39c0.62-0.2,1.18-0.48,1.69-0.83
		c0.46-0.32,0.87-0.71,1.23-1.16c0.35-0.45,0.67-0.96,0.95-1.52l-0.83-0.5c-0.58,0.99-1.22,1.74-1.93,2.23
		c-0.71,0.49-1.51,0.74-2.41,0.74c-0.62,0-1.18-0.11-1.69-0.35c-0.51-0.23-0.95-0.59-1.33-1.08c-0.35-0.47-0.63-1.09-0.85-1.87
		c-0.22-0.77-0.32-1.7-0.32-2.8c0-1.93,0.32-3.43,0.95-4.51c0.63-1.07,1.55-1.6,2.77-1.6c0.97,0,1.8,0.36,2.47,1.08
		c0.68,0.72,1.26,1.84,1.74,3.38h0.85l-0.09-5.01h-0.84l-0.6,0.53c-0.43-0.23-0.96-0.44-1.59-0.63c-0.63-0.19-1.32-0.28-2.08-0.28
		c-1.05,0-2.04,0.18-2.96,0.54c-0.92,0.36-1.71,0.86-2.37,1.52c-0.67,0.67-1.19,1.45-1.56,2.36s-0.56,1.9-0.56,2.96
		c0,1.07,0.18,2.06,0.55,2.95c0.37,0.89,0.87,1.65,1.51,2.25c0.65,0.62,1.42,1.09,2.29,1.42c0.88,0.33,1.82,0.49,2.83,0.49
		C110.6,146.69,111.32,146.59,111.94,146.39"/>
</g>
<polygon fill="#FFFFFF" points="267.9,243.45 267.9,221.94 180.89,159.19 93.64,222.12 93.64,243.63 180.89,182.11 "/>
<polygon fill="#F2A301" points="182.67,217.04 186.25,220.35 185.9,215.49 190.72,214.75 186.7,212 189.13,207.77 184.46,209.2 
	182.67,204.66 180.88,209.2 176.22,207.77 178.65,212 174.62,214.75 179.44,215.49 179.09,220.35 "/>
<polygon fill="#F2A301" points="152.01,249.65 155.59,252.96 155.24,248.1 160.06,247.36 156.03,244.6 158.46,240.38 153.8,241.8 
	152.01,237.27 150.22,241.8 145.55,240.38 147.98,244.6 143.96,247.36 148.78,248.1 148.43,252.96 "/>
<polygon fill="#F2A301" points="209.53,241.8 213.11,245.11 212.76,240.25 217.58,239.51 213.56,236.76 215.99,232.53 
	211.32,233.96 209.53,229.42 207.74,233.96 203.08,232.53 205.51,236.76 201.48,239.51 206.3,240.25 205.95,245.11 "/>
<polygon fill="#F2A301" points="194.49,261.07 197.62,262.72 197.02,259.24 199.55,256.77 196.05,256.26 194.49,253.09 
	192.92,256.26 189.42,256.77 191.96,259.24 191.36,262.72 "/>
<polygon fill="#F2A301" points="182.02,297.55 185.6,300.86 185.25,295.99 190.07,295.26 186.04,292.5 188.47,288.27 183.81,289.7 
	182.02,285.16 180.23,289.7 175.56,288.27 178,292.5 173.97,295.26 178.79,295.99 178.44,300.86 "/>
<g>
	<path fill="#191346" d="M224.07,38.17l-4.87-5.14c-0.51-0.19-6.8,1.9-10.04,2.7c-3.23,0.79-12.13,1.08-15.36,0.45
		c-3.23-0.62-8.16-0.57-12.96,4.54c-4.79-5.1-9.72-5.16-12.96-4.54c-3.23,0.62-12.13,0.34-15.36-0.45
		c-3.23-0.79-9.52-2.89-10.03-2.7l-4.87,5.14l2.57,56.27c7.94,1.98,9.35-0.42,12.9-0.42c4.54,0,7.94,1.62,13.04,1.62
		c2.41,0,5.95-1.2,7.37-2.05c1.42-0.85,3.4-2.71,7.34-0.85c3.94-1.86,5.93,0,7.34,0.85c1.42,0.85,4.96,2.05,7.37,2.05
		c5.1,0,8.5-1.62,13.04-1.62c3.54,0,4.96,2.41,12.9,0.42L224.07,38.17z"/>
	<path fill="#FFFFFF" d="M143.37,34.88c3.37,0.97,10.59,3.18,17.85,3.46c7.37,0.29,10.89-3.46,18.63,2.81v49.46
		c-6.05-3.54-12.57-0.36-15.12-0.18c-2.55,0.18-6.8-0.24-10.06-0.81c-3.26-0.57-4.39-1.13-9.92-0.71L143.37,34.88z"/>
	<path fill="#FFFFFF" d="M218.33,34.88c-3.37,0.97-10.6,3.18-17.85,3.46c-7.37,0.29-10.88-3.46-18.63,2.81v49.46
		c6.05-3.54,12.57-0.36,15.12-0.18c2.55,0.18,6.8-0.24,10.06-0.81c3.26-0.57,4.39-1.13,9.92-0.71L218.33,34.88z"/>
	<path fill="#191346" d="M281.35,367.42l-5.11-1.4l-0.17,0.6c0.17,0.06,0.41,0.15,0.71,0.28c0.3,0.13,0.53,0.26,0.68,0.39
		c0.18,0.14,0.27,0.3,0.28,0.5c0.01,0.2-0.01,0.41-0.07,0.64l-0.18,0.64c-0.06,0.2-0.12,0.45-0.21,0.74
		c-0.08,0.29-0.19,0.57-0.31,0.84c-0.21,0.12-0.53,0.2-0.97,0.24c-0.44,0.04-0.9-0.01-1.38-0.14c-0.65-0.18-1.19-0.48-1.62-0.9
		c-0.43-0.42-0.75-0.92-0.96-1.5c-0.21-0.57-0.31-1.21-0.31-1.91c0-0.7,0.1-1.43,0.31-2.17c0.23-0.84,0.53-1.57,0.9-2.21
		c0.37-0.63,0.78-1.13,1.24-1.49c0.47-0.38,0.97-0.62,1.49-0.74s1.08-0.09,1.67,0.07c0.54,0.15,0.97,0.38,1.3,0.69
		c0.33,0.31,0.58,0.68,0.76,1.1c0.17,0.42,0.29,0.87,0.34,1.35c0.05,0.48,0.07,0.96,0.06,1.45l0.67,0.18l1.04-4.1l-0.66-0.18
		l-0.49,0.47c-0.31-0.33-0.69-0.64-1.13-0.93s-0.99-0.53-1.65-0.71c-0.82-0.22-1.64-0.28-2.44-0.18c-0.8,0.11-1.54,0.36-2.21,0.77
		c-0.69,0.41-1.29,0.96-1.79,1.64c-0.5,0.68-0.88,1.46-1.12,2.35c-0.25,0.92-0.33,1.8-0.23,2.63c0.1,0.83,0.34,1.58,0.72,2.24
		c0.37,0.66,0.87,1.22,1.48,1.69c0.61,0.47,1.29,0.81,2.04,1.01c0.7,0.19,1.43,0.3,2.2,0.32c0.77,0.02,1.57-0.03,2.39-0.16
		c0.03-0.15,0.07-0.34,0.13-0.58c0.05-0.23,0.17-0.68,0.35-1.34l0.25-0.9c0.06-0.2,0.14-0.37,0.25-0.5
		c0.11-0.13,0.26-0.22,0.45-0.25c0.15-0.03,0.35-0.03,0.58-0.01c0.23,0.03,0.42,0.05,0.55,0.07L281.35,367.42z M270.18,357.54
		l-4.82-0.99l-0.12,0.59c0.18,0.05,0.44,0.16,0.77,0.33c0.33,0.17,0.57,0.33,0.7,0.47c0.14,0.16,0.22,0.43,0.23,0.82
		c0.01,0.39-0.05,0.93-0.19,1.62l-1.16,5.64l-4.8-10.4l-3.39-0.7l-0.12,0.59c0.21,0.06,0.47,0.18,0.79,0.39
		c0.32,0.2,0.55,0.41,0.72,0.64c0.12,0.17,0.2,0.39,0.24,0.67c0.04,0.27,0.03,0.54-0.03,0.8l-1.2,5.84
		c-0.16,0.77-0.31,1.31-0.45,1.62c-0.14,0.3-0.32,0.51-0.55,0.63c-0.11,0.06-0.35,0.1-0.72,0.12c-0.38,0.03-0.64,0.03-0.79,0.01
		l-0.12,0.59l4.86,1l0.12-0.59c-0.13-0.03-0.38-0.14-0.76-0.33c-0.38-0.19-0.62-0.36-0.72-0.51c-0.15-0.19-0.22-0.48-0.24-0.87
		c-0.01-0.39,0.06-0.92,0.2-1.61l1.26-6.11l5.18,11.17l0.73,0.15l1.79-8.68c0.12-0.61,0.26-1.1,0.41-1.48
		c0.15-0.38,0.34-0.62,0.57-0.72c0.16-0.06,0.41-0.1,0.75-0.12c0.34-0.02,0.59-0.01,0.75,0.01L270.18,357.54z M253.57,365.98
		c-0.18-0.04-0.4-0.1-0.66-0.2c-0.26-0.1-0.44-0.18-0.55-0.24c-0.18-0.12-0.3-0.25-0.36-0.41c-0.06-0.16-0.07-0.33-0.04-0.51
		l1.42-8.64c0.03-0.18,0.1-0.35,0.19-0.49c0.1-0.14,0.26-0.23,0.48-0.26c0.19-0.03,0.41-0.04,0.65-0.04c0.25,0,0.46,0.02,0.63,0.04
		l0.1-0.6l-5.38-0.89l-0.1,0.6c0.16,0.04,0.36,0.11,0.61,0.21c0.24,0.1,0.45,0.2,0.6,0.29c0.21,0.13,0.34,0.26,0.38,0.4
		c0.04,0.14,0.04,0.31,0.01,0.51l-1.43,8.65c-0.04,0.23-0.11,0.39-0.21,0.51c-0.1,0.11-0.26,0.19-0.45,0.23
		c-0.13,0.03-0.33,0.03-0.62,0c-0.29-0.02-0.51-0.04-0.66-0.06l-0.1,0.6l5.38,0.89L253.57,365.98z M247.94,353.41l-4.88-0.65
		l-0.08,0.6c0.18,0.04,0.45,0.13,0.79,0.28c0.34,0.15,0.59,0.29,0.73,0.42c0.15,0.15,0.25,0.41,0.29,0.8
		c0.04,0.39,0.01,0.93-0.08,1.63l-0.76,5.7l-5.53-10.04l-3.43-0.45l-0.08,0.6c0.21,0.04,0.48,0.15,0.81,0.33
		c0.33,0.18,0.58,0.37,0.76,0.59c0.13,0.16,0.23,0.38,0.28,0.65c0.05,0.27,0.07,0.54,0.03,0.8l-0.78,5.91
		c-0.1,0.78-0.21,1.33-0.33,1.65c-0.12,0.31-0.28,0.54-0.5,0.67c-0.1,0.07-0.34,0.13-0.71,0.18c-0.37,0.05-0.64,0.07-0.79,0.06
		l-0.08,0.6l4.92,0.65l0.08-0.6c-0.13-0.02-0.39-0.11-0.78-0.27c-0.39-0.16-0.64-0.31-0.76-0.45c-0.16-0.18-0.26-0.46-0.3-0.85
		c-0.04-0.38-0.01-0.92,0.08-1.62l0.82-6.19l5.97,10.78l0.74,0.1l1.17-8.78c0.08-0.61,0.18-1.12,0.31-1.51
		c0.12-0.39,0.3-0.64,0.52-0.76c0.15-0.07,0.4-0.13,0.74-0.17c0.34-0.04,0.59-0.05,0.74-0.04L247.94,353.41z M228.1,356.2
		c-0.57,0.45-1.24,0.64-2.02,0.57l-1.11-0.1l0.48-5.16l1.44,0.14c0.76,0.07,1.34,0.34,1.72,0.8c0.38,0.46,0.53,1.06,0.47,1.79
		C228.99,355.1,228.67,355.75,228.1,356.2 M232.76,363.03c-0.15-0.02-0.33-0.06-0.55-0.12s-0.4-0.13-0.54-0.22
		c-0.19-0.12-0.38-0.27-0.56-0.45c-0.19-0.18-0.39-0.45-0.6-0.81c-0.5-0.82-0.92-1.52-1.26-2.1c-0.34-0.57-0.78-1.28-1.3-2.12
		c0.44-0.08,0.85-0.2,1.22-0.34c0.37-0.14,0.7-0.33,0.98-0.55c0.3-0.23,0.54-0.52,0.71-0.87c0.17-0.34,0.28-0.75,0.33-1.21
		c0.05-0.51-0.02-0.96-0.19-1.35c-0.18-0.38-0.43-0.71-0.76-0.97c-0.34-0.27-0.73-0.47-1.17-0.62c-0.44-0.15-0.91-0.24-1.42-0.29
		l-5.56-0.52l-0.06,0.6c0.16,0.03,0.35,0.07,0.57,0.13c0.22,0.06,0.4,0.13,0.54,0.19c0.2,0.1,0.32,0.23,0.37,0.39
		c0.04,0.16,0.05,0.34,0.04,0.53l-0.81,8.71c-0.02,0.22-0.08,0.4-0.16,0.53c-0.09,0.13-0.22,0.23-0.4,0.29
		c-0.11,0.04-0.29,0.06-0.55,0.06c-0.26,0.01-0.46,0.01-0.6,0.01l-0.06,0.6l5.09,0.47l0.06-0.6c-0.17-0.02-0.39-0.06-0.64-0.12
		c-0.25-0.06-0.43-0.11-0.52-0.16c-0.2-0.1-0.32-0.23-0.37-0.38c-0.05-0.16-0.06-0.33-0.04-0.53l0.36-3.82l1.23,0.12
		c0.6,0.93,1.15,1.84,1.65,2.71c0.5,0.88,1.06,1.91,1.67,3.1l3.24,0.3L232.76,363.03z M211.68,356.94l2.12-4.56l1.52,4.81
		L211.68,356.94z M219.88,361.84c-0.14-0.02-0.32-0.06-0.52-0.12c-0.21-0.07-0.37-0.15-0.5-0.23c-0.18-0.14-0.32-0.29-0.42-0.43
		c-0.1-0.14-0.18-0.33-0.25-0.56l-3.33-10.68l-0.68-0.05c-0.67,1.44-1.44,3.08-2.29,4.91c-0.86,1.84-1.64,3.5-2.35,4.97
		c-0.14,0.29-0.28,0.51-0.41,0.67s-0.32,0.31-0.56,0.45c-0.15,0.08-0.33,0.14-0.56,0.18c-0.22,0.04-0.41,0.06-0.56,0.06l-0.04,0.6
		l4.55,0.3l0.04-0.6c-0.45-0.05-0.84-0.15-1.19-0.3c-0.35-0.15-0.52-0.34-0.5-0.56c0.01-0.1,0.03-0.22,0.07-0.37
		c0.04-0.15,0.1-0.35,0.19-0.59c0.1-0.24,0.2-0.51,0.32-0.8c0.12-0.29,0.27-0.63,0.46-1.01l4.24,0.28l0.82,2.77
		c0.02,0.06,0.03,0.12,0.04,0.2c0.01,0.07,0.01,0.14,0,0.19c-0.01,0.12-0.16,0.22-0.46,0.29c-0.3,0.07-0.67,0.1-1.11,0.1l-0.04,0.6
		l5.02,0.33L219.88,361.84z M205.83,358c-0.09,0.26-0.29,0.66-0.6,1.2c-0.31,0.54-0.6,0.95-0.87,1.21c-0.1,0.1-0.27,0.17-0.5,0.22
		c-0.23,0.05-0.46,0.08-0.67,0.1c-0.21,0.02-0.47,0.02-0.78,0.01c-0.31-0.01-0.55-0.02-0.74-0.03c-0.47-0.02-0.83-0.05-1.09-0.09
		c-0.25-0.04-0.45-0.12-0.6-0.23c-0.14-0.11-0.24-0.28-0.28-0.49c-0.04-0.21-0.06-0.5-0.04-0.86l0.14-3.62l1.36,0.05
		c0.37,0.01,0.66,0.06,0.89,0.14c0.22,0.08,0.42,0.23,0.58,0.46c0.1,0.14,0.2,0.36,0.29,0.67c0.09,0.31,0.14,0.6,0.15,0.87
		l0.64,0.02l0.18-4.74l-0.64-0.02c-0.04,0.24-0.11,0.5-0.21,0.77c-0.1,0.27-0.21,0.49-0.35,0.65c-0.16,0.19-0.34,0.32-0.55,0.39
		c-0.21,0.08-0.53,0.1-0.96,0.09l-1.36-0.05l0.18-4.81l1.9,0.07c0.31,0.01,0.59,0.03,0.83,0.05c0.24,0.02,0.45,0.05,0.63,0.08
		c0.34,0.06,0.69,0.34,1.05,0.84c0.36,0.5,0.59,0.97,0.68,1.4l0.64,0.02l0.11-2.91l-9.35-0.36l-0.02,0.61
		c0.15,0.02,0.36,0.06,0.61,0.13c0.26,0.07,0.46,0.14,0.61,0.22c0.19,0.1,0.32,0.22,0.38,0.37c0.06,0.15,0.08,0.32,0.08,0.5
		l-0.33,8.69c-0.01,0.21-0.05,0.38-0.13,0.51c-0.08,0.13-0.21,0.24-0.39,0.32c-0.09,0.04-0.27,0.07-0.56,0.09
		c-0.29,0.03-0.51,0.04-0.68,0.05l-0.02,0.61l10.04,0.38l0.37-3.55L205.83,358z M193.72,357.54c-0.12,0.33-0.35,0.75-0.66,1.28
		c-0.32,0.53-0.6,0.92-0.83,1.18c-0.08,0.09-0.21,0.16-0.38,0.22c-0.17,0.06-0.35,0.1-0.55,0.13c-0.21,0.03-0.42,0.05-0.65,0.06
		c-0.23,0.01-0.45,0.01-0.66,0.01c-0.47-0.01-0.83-0.03-1.09-0.07c-0.26-0.04-0.45-0.1-0.58-0.21c-0.14-0.12-0.22-0.28-0.25-0.49
		c-0.03-0.21-0.05-0.5-0.04-0.87l0.14-8.12c0-0.19,0.04-0.36,0.12-0.53c0.07-0.16,0.21-0.28,0.4-0.34c0.12-0.04,0.3-0.08,0.55-0.13
		c0.25-0.05,0.46-0.07,0.62-0.08l0.01-0.61l-5.11-0.09l-0.01,0.61c0.15,0.01,0.35,0.06,0.58,0.12c0.23,0.07,0.42,0.14,0.55,0.21
		c0.19,0.09,0.32,0.22,0.38,0.37c0.06,0.15,0.09,0.32,0.09,0.51l-0.15,8.66c0,0.22-0.04,0.4-0.12,0.54
		c-0.08,0.14-0.2,0.25-0.38,0.32c-0.1,0.04-0.28,0.08-0.54,0.1c-0.26,0.02-0.46,0.04-0.59,0.05l-0.01,0.61l9.45,0.16l0.32-3.59
		L193.72,357.54z M172.88,359.91c-0.4,0.18-0.8,0.28-1.22,0.29c-0.74,0.01-1.33-0.24-1.78-0.74c-0.45-0.5-0.68-1.14-0.69-1.91
		c-0.01-0.55,0.08-1.04,0.27-1.48c0.18-0.43,0.51-0.81,0.96-1.13c0.41,0.55,0.94,1.21,1.62,2c0.67,0.79,1.28,1.52,1.82,2.18
		C173.6,359.46,173.28,359.72,172.88,359.91 M172.71,352.59c-0.25,0.39-0.67,0.75-1.25,1.09c-0.44-0.56-0.76-1.04-0.97-1.44
		c-0.21-0.4-0.32-0.79-0.32-1.18c0-0.14,0.02-0.3,0.07-0.49c0.05-0.18,0.13-0.35,0.24-0.51c0.12-0.17,0.27-0.3,0.44-0.42
		c0.17-0.11,0.4-0.17,0.66-0.17c0.47-0.01,0.84,0.14,1.09,0.45c0.26,0.31,0.39,0.75,0.4,1.33
		C173.09,351.75,172.96,352.2,172.71,352.59 M179.14,353.32l-4.56,0.06l0.01,0.61c0.47,0.09,0.83,0.19,1.1,0.29
		c0.27,0.1,0.4,0.24,0.4,0.43c0.01,0.41-0.09,0.88-0.29,1.42c-0.2,0.54-0.49,1.12-0.86,1.73c-0.48-0.57-0.98-1.14-1.5-1.73
		c-0.52-0.59-1.05-1.24-1.59-1.95c0.74-0.4,1.31-0.85,1.73-1.35c0.42-0.5,0.62-1.09,0.61-1.77c0-0.28-0.06-0.57-0.17-0.85
		c-0.11-0.28-0.26-0.53-0.47-0.74c-0.22-0.23-0.5-0.41-0.85-0.55c-0.35-0.14-0.75-0.21-1.2-0.2c-0.39,0.01-0.77,0.07-1.14,0.2
		c-0.37,0.13-0.69,0.31-0.95,0.53c-0.28,0.25-0.5,0.54-0.65,0.87c-0.15,0.33-0.23,0.69-0.22,1.08c0.01,0.55,0.14,1.05,0.4,1.49
		c0.26,0.44,0.63,0.96,1.1,1.56c-1.01,0.66-1.69,1.27-2.06,1.85c-0.36,0.58-0.54,1.22-0.53,1.92c0.01,0.57,0.12,1.06,0.33,1.46
		c0.21,0.41,0.48,0.74,0.82,0.99c0.35,0.26,0.73,0.45,1.14,0.57c0.42,0.12,0.84,0.17,1.26,0.17c0.4-0.01,0.75-0.06,1.05-0.16
		c0.3-0.1,0.59-0.24,0.89-0.41c0.26-0.16,0.52-0.35,0.76-0.58c0.24-0.22,0.45-0.44,0.63-0.64l1.29,1.43l3.51-0.05l-0.01-0.61
		c-0.27-0.01-0.61-0.05-1.03-0.14c-0.42-0.09-0.74-0.19-0.97-0.32c-0.23-0.14-0.52-0.37-0.85-0.68c-0.33-0.32-0.62-0.61-0.85-0.88
		c0.27-0.36,0.49-0.71,0.67-1.07c0.17-0.36,0.34-0.72,0.5-1.08c0.17-0.37,0.31-0.68,0.43-0.95c0.12-0.27,0.24-0.47,0.35-0.61
		c0.18-0.23,0.44-0.4,0.78-0.51c0.34-0.11,0.68-0.18,1.01-0.21L179.14,353.32z M161.39,360.75c-0.14,0-0.34-0.02-0.59-0.06
		c-0.25-0.04-0.42-0.08-0.52-0.13c-0.2-0.09-0.33-0.2-0.41-0.34c-0.07-0.13-0.11-0.3-0.12-0.5l-0.44-8.71
		c-0.01-0.19,0.01-0.36,0.07-0.52c0.06-0.16,0.18-0.28,0.37-0.36c0.11-0.05,0.28-0.1,0.51-0.15c0.23-0.06,0.42-0.09,0.58-0.11
		l-0.03-0.61l-5.01,0.26l0.03,0.61c0.16,0,0.35,0.03,0.57,0.07c0.22,0.05,0.41,0.1,0.57,0.17c0.19,0.08,0.32,0.19,0.4,0.33
		c0.08,0.15,0.13,0.31,0.14,0.49l0.19,3.66l-5.68,0.29l-0.19-3.75c-0.01-0.19,0.01-0.36,0.07-0.52c0.06-0.16,0.18-0.28,0.37-0.36
		c0.11-0.05,0.28-0.1,0.51-0.15c0.23-0.06,0.42-0.09,0.58-0.11l-0.03-0.6l-5.01,0.26l0.03,0.6c0.16,0,0.35,0.03,0.57,0.07
		c0.22,0.04,0.41,0.1,0.57,0.17c0.19,0.08,0.32,0.19,0.4,0.33c0.08,0.15,0.13,0.31,0.14,0.49l0.44,8.72
		c0.01,0.22-0.02,0.4-0.09,0.55c-0.07,0.14-0.19,0.25-0.36,0.33c-0.09,0.05-0.27,0.09-0.53,0.13c-0.26,0.04-0.45,0.06-0.59,0.08
		l0.03,0.61l5.01-0.26l-0.03-0.6c-0.14,0-0.34-0.02-0.59-0.06c-0.25-0.04-0.42-0.08-0.52-0.13c-0.2-0.09-0.33-0.21-0.41-0.34
		c-0.07-0.13-0.11-0.3-0.12-0.5l-0.21-4.21l5.68-0.29l0.22,4.3c0.01,0.22-0.02,0.4-0.09,0.55c-0.07,0.14-0.19,0.25-0.36,0.33
		c-0.09,0.05-0.27,0.09-0.53,0.13c-0.26,0.04-0.45,0.06-0.59,0.08l0.03,0.6l5.01-0.25L161.39,360.75z M146.12,350.07l-10.51,0.84
		l0.26,3.27l0.6-0.05c0.04-0.19,0.11-0.43,0.22-0.73c0.11-0.3,0.24-0.58,0.38-0.85c0.15-0.27,0.32-0.51,0.5-0.73
		c0.18-0.22,0.37-0.35,0.56-0.38c0.24-0.05,0.48-0.09,0.74-0.11c0.26-0.03,0.48-0.05,0.65-0.07l0.49-0.04l0.78,9.72
		c0.02,0.23-0.01,0.42-0.09,0.57s-0.21,0.26-0.39,0.35c-0.12,0.06-0.34,0.12-0.66,0.18s-0.56,0.1-0.72,0.13l0.05,0.6l5.69-0.45
		l-0.05-0.6c-0.18,0.01-0.44-0.01-0.77-0.05c-0.33-0.04-0.55-0.08-0.65-0.11c-0.21-0.07-0.35-0.18-0.45-0.33
		c-0.09-0.15-0.14-0.32-0.16-0.5l-0.77-9.65l0.49-0.04c0.23-0.02,0.47-0.03,0.74-0.04c0.27-0.01,0.49-0.01,0.67,0
		c0.19,0.01,0.39,0.11,0.61,0.29c0.22,0.18,0.42,0.39,0.61,0.64c0.19,0.24,0.36,0.49,0.51,0.76c0.16,0.27,0.27,0.51,0.34,0.7
		l0.59-0.05L146.12,350.07z M135.12,359.51c-0.08,0.34-0.25,0.79-0.5,1.35c-0.25,0.56-0.48,0.98-0.68,1.27
		c-0.07,0.1-0.18,0.19-0.35,0.27c-0.16,0.08-0.34,0.14-0.53,0.2c-0.2,0.06-0.41,0.1-0.64,0.14c-0.22,0.04-0.44,0.06-0.65,0.09
		c-0.46,0.05-0.82,0.07-1.08,0.07c-0.26,0-0.46-0.05-0.6-0.14c-0.15-0.1-0.25-0.25-0.31-0.45c-0.06-0.2-0.11-0.49-0.15-0.86
		l-0.87-8.08c-0.02-0.19,0-0.37,0.05-0.54c0.05-0.17,0.17-0.3,0.36-0.39c0.11-0.05,0.29-0.12,0.53-0.19s0.45-0.13,0.61-0.15
		l-0.06-0.6l-5.08,0.54l0.07,0.6c0.15-0.01,0.35,0.01,0.59,0.05c0.24,0.04,0.43,0.09,0.57,0.14c0.2,0.07,0.34,0.18,0.42,0.32
		c0.08,0.14,0.13,0.31,0.15,0.5l0.92,8.61c0.02,0.22,0.01,0.41-0.06,0.55c-0.06,0.15-0.17,0.27-0.33,0.36
		c-0.1,0.06-0.27,0.11-0.53,0.17c-0.25,0.06-0.45,0.1-0.58,0.12l0.07,0.6l9.4-1.01l-0.13-3.6L135.12,359.51z M116.21,360.45
		l1.14-4.9l2.47,4.39L116.21,360.45z M125.23,363.57c-0.14,0.02-0.32,0.01-0.54-0.01c-0.21-0.02-0.39-0.07-0.53-0.13
		c-0.21-0.1-0.38-0.21-0.5-0.33c-0.13-0.12-0.25-0.28-0.36-0.49l-5.44-9.77l-0.68,0.1c-0.36,1.54-0.78,3.3-1.24,5.28
		c-0.46,1.98-0.89,3.76-1.28,5.35c-0.08,0.31-0.17,0.56-0.27,0.74c-0.1,0.18-0.25,0.37-0.46,0.55c-0.13,0.11-0.3,0.21-0.51,0.29
		c-0.21,0.08-0.39,0.14-0.53,0.17l0.08,0.6l4.51-0.63l-0.08-0.6c-0.45,0.04-0.86,0.02-1.23-0.05s-0.57-0.22-0.6-0.45
		c-0.01-0.1-0.02-0.22-0.01-0.38c0.01-0.16,0.03-0.36,0.07-0.61c0.04-0.26,0.1-0.54,0.15-0.85c0.06-0.31,0.14-0.67,0.24-1.08
		l4.21-0.59l1.37,2.54c0.03,0.05,0.06,0.12,0.08,0.19c0.02,0.07,0.04,0.13,0.04,0.18c0.02,0.12-0.11,0.25-0.39,0.37
		s-0.63,0.23-1.07,0.32l0.08,0.6l4.98-0.7L125.23,363.57z M110.65,362.69c-0.03,0.27-0.14,0.71-0.32,1.3
		c-0.18,0.6-0.38,1.05-0.59,1.37c-0.08,0.12-0.22,0.23-0.44,0.33c-0.21,0.1-0.43,0.18-0.64,0.24c-0.2,0.06-0.46,0.12-0.76,0.17
		c-0.3,0.05-0.54,0.1-0.73,0.13c-0.46,0.08-0.82,0.14-1.08,0.15c-0.26,0.02-0.47-0.02-0.63-0.1c-0.17-0.08-0.29-0.22-0.38-0.42
		c-0.09-0.2-0.17-0.48-0.23-0.83l-0.65-3.57l1.34-0.25c0.36-0.07,0.66-0.09,0.89-0.06c0.23,0.03,0.46,0.13,0.67,0.32
		c0.13,0.11,0.27,0.31,0.42,0.59c0.15,0.28,0.26,0.55,0.34,0.82l0.63-0.11l-0.85-4.66l-0.63,0.12c0.02,0.24,0.01,0.51-0.03,0.8
		c-0.04,0.29-0.1,0.52-0.2,0.71c-0.12,0.22-0.27,0.38-0.45,0.5c-0.18,0.12-0.49,0.21-0.92,0.29l-1.34,0.24l-0.86-4.73l1.87-0.34
		c0.31-0.06,0.58-0.1,0.82-0.13c0.24-0.03,0.45-0.05,0.63-0.06c0.34-0.02,0.74,0.18,1.2,0.59s0.78,0.82,0.97,1.22l0.63-0.11
		l-0.52-2.87l-9.21,1.68l0.11,0.6c0.15-0.02,0.36-0.02,0.63-0.01c0.26,0.01,0.48,0.04,0.64,0.08c0.21,0.05,0.36,0.15,0.45,0.28
		c0.09,0.13,0.15,0.29,0.18,0.47l1.56,8.55c0.04,0.21,0.03,0.38-0.01,0.53c-0.05,0.15-0.15,0.28-0.31,0.39
		c-0.08,0.06-0.25,0.13-0.52,0.21c-0.27,0.09-0.49,0.15-0.66,0.19l0.11,0.6l9.88-1.8l-0.41-3.55L110.65,362.69z M99.29,367.77
		c-0.14,0.03-0.34,0.05-0.59,0.05c-0.25,0.01-0.43,0-0.54-0.03c-0.21-0.05-0.37-0.14-0.46-0.26c-0.1-0.12-0.17-0.27-0.21-0.46
		l-2.06-8.47c-0.04-0.18-0.05-0.36-0.03-0.53c0.03-0.17,0.12-0.31,0.3-0.42c0.1-0.07,0.26-0.15,0.47-0.25
		c0.21-0.1,0.4-0.17,0.55-0.21l-0.14-0.59l-4.88,1.19l0.14,0.59c0.16-0.03,0.35-0.04,0.57-0.04c0.23,0,0.42,0.02,0.59,0.06
		c0.2,0.04,0.35,0.12,0.46,0.25c0.11,0.13,0.18,0.28,0.23,0.46l0.87,3.56l-5.53,1.35l-0.89-3.64c-0.04-0.18-0.05-0.36-0.03-0.53
		c0.03-0.17,0.12-0.31,0.3-0.42c0.1-0.07,0.26-0.15,0.47-0.25c0.21-0.1,0.4-0.17,0.55-0.21l-0.14-0.59l-4.88,1.19l0.14,0.59
		c0.16-0.03,0.35-0.04,0.57-0.04c0.23,0,0.42,0.02,0.59,0.06c0.2,0.04,0.35,0.12,0.46,0.25c0.11,0.13,0.18,0.28,0.23,0.46l2.07,8.48
		c0.05,0.21,0.06,0.4,0.01,0.55c-0.05,0.15-0.14,0.29-0.29,0.39c-0.08,0.07-0.25,0.14-0.49,0.23c-0.25,0.08-0.43,0.15-0.56,0.19
		l0.14,0.59l4.88-1.19L92,369.55c-0.14,0.03-0.33,0.05-0.59,0.06c-0.25,0.01-0.43,0-0.54-0.03c-0.21-0.05-0.37-0.14-0.46-0.26
		c-0.1-0.12-0.17-0.27-0.21-0.47l-1-4.09l5.53-1.35l1.02,4.18c0.05,0.21,0.06,0.4,0.01,0.55s-0.14,0.28-0.29,0.39
		c-0.08,0.07-0.25,0.14-0.49,0.23c-0.25,0.08-0.43,0.15-0.56,0.19l0.14,0.59l4.88-1.19L99.29,367.77z"/>
	<path fill="#191346" d="M797.17,151.85c0-2.71,0.49-4.87,1.46-6.48c0.97-1.61,2.28-2.42,3.92-2.42c1.64,0,2.83,0.62,3.55,1.87
		c0.72,1.24,1.09,3.26,1.09,6.06l-0.02,0.98H797.17z M795.21,145.06c-1.98,2.31-2.98,5.27-2.98,8.89c0,3.81,1.11,6.91,3.32,9.29
		c2.21,2.39,5.09,3.58,8.63,3.58c2.3,0,4.83-0.55,7.62-1.64v-2.24c-1.91,1.11-4.22,1.67-6.93,1.67c-2.58,0-4.52-0.96-5.83-2.88
		c-1.31-1.92-1.96-4.76-1.96-8.52h14.72v-0.42c0-3.59-0.77-6.35-2.32-8.29s-3.76-2.9-6.63-2.9
		C799.74,141.59,797.2,142.75,795.21,145.06 M769.19,169.69c0-0.8,0.14-1.53,0.41-2.19s0.68-1.26,1.23-1.79h7.6
		c1.55,0,2.72,0.28,3.49,0.82c0.77,0.55,1.16,1.37,1.16,2.46c0,1.61-0.64,2.89-1.92,3.84c-1.28,0.95-3,1.42-5.16,1.42
		c-2.27,0-3.96-0.38-5.1-1.14C769.76,172.35,769.19,171.21,769.19,169.69 M770.86,149.92c0-2.33,0.39-4.08,1.18-5.23
		c0.78-1.16,1.96-1.74,3.53-1.74c3.08,0,4.62,2.33,4.62,6.99c0,2.44-0.39,4.26-1.15,5.48c-0.77,1.22-1.93,1.83-3.49,1.83
		c-1.55,0-2.72-0.61-3.51-1.84C771.25,154.19,770.86,152.36,770.86,149.92 M766.05,167.64c-0.81,0.84-1.21,1.77-1.21,2.78
		c0,1.55,1.01,2.8,3.02,3.74c2.01,0.94,4.67,1.41,7.97,1.41c3.46,0,6.25-0.7,8.35-2.1s3.15-3.26,3.15-5.59c0-2.07-0.7-3.5-2.09-4.29
		c-1.39-0.79-3.93-1.18-7.62-1.18h-3.84c-1.85,0-2.78-0.52-2.78-1.57c0-0.5,0.13-0.98,0.4-1.43c0.27-0.45,0.66-0.88,1.18-1.27
		c1.1,0.31,2.13,0.46,3.11,0.46c2.58,0,4.7-0.81,6.36-2.42c1.66-1.62,2.5-3.66,2.5-6.14c0-2.48-0.95-4.62-2.84-6.45l5.8,0.93
		l1.11-2.67l-8.46,0.67c-1.36-0.62-2.89-0.93-4.58-0.93c-2.77,0-4.98,0.77-6.63,2.32s-2.48,3.6-2.48,6.19c0,1.84,0.41,3.4,1.23,4.7
		c0.82,1.29,2.05,2.3,3.68,3.03c-1.41,0.69-2.46,1.41-3.16,2.14c-0.7,0.73-1.05,1.47-1.05,2.23c0,1.33,0.84,2.38,2.51,3.15
		C768.07,166.03,766.86,166.8,766.05,167.64 M746.2,151.85c0-2.71,0.48-4.87,1.46-6.48c0.97-1.61,2.28-2.42,3.92-2.42
		c1.64,0,2.83,0.62,3.55,1.87c0.73,1.24,1.09,3.26,1.09,6.06l-0.02,0.98H746.2z M744.25,145.06c-1.98,2.31-2.98,5.27-2.98,8.89
		c0,3.81,1.11,6.91,3.32,9.29c2.21,2.39,5.09,3.58,8.63,3.58c2.29,0,4.83-0.55,7.62-1.64v-2.24c-1.91,1.11-4.22,1.67-6.93,1.67
		c-2.58,0-4.52-0.96-5.83-2.88c-1.31-1.92-1.97-4.76-1.97-8.52h14.72v-0.42c0-3.59-0.77-6.35-2.32-8.29s-3.76-2.9-6.63-2.9
		C748.78,141.59,746.23,142.75,744.25,145.06 M717.82,131.2h-8.48v1.38l0.42,0.02c1.79,0.12,2.85,0.37,3.19,0.77
		c0.33,0.39,0.5,1.59,0.5,3.59v23.56c0,2-0.17,3.19-0.5,3.59c-0.33,0.39-1.39,0.65-3.19,0.77l-0.42,0.02v1.38h12.59v-1.38
		l-0.42-0.02c-1.81-0.12-2.88-0.37-3.2-0.76c-0.32-0.38-0.49-1.58-0.49-3.6V131.2z M687.49,154.21c0-3.22,0.65-5.9,1.96-8.04
		c1.31-2.14,2.94-3.21,4.89-3.21c1.97,0,3.61,1.07,4.92,3.21c1.3,2.14,1.96,4.83,1.96,8.04c0,3.25-0.65,5.94-1.96,8.07
		c-1.31,2.13-2.94,3.19-4.92,3.19s-3.61-1.06-4.91-3.19C688.14,160.14,687.49,157.46,687.49,154.21 M685.94,144.97
		c-2.06,2.25-3.09,5.33-3.09,9.22s1.03,6.98,3.09,9.23c2.06,2.26,4.86,3.39,8.42,3.39s6.36-1.13,8.42-3.39
		c2.06-2.26,3.09-5.34,3.09-9.23s-1.02-6.97-3.08-9.22c-2.05-2.25-4.86-3.38-8.43-3.38C690.8,141.59,688,142.72,685.94,144.97
		 M656.9,137.1c-2.8,3.01-4.2,7.24-4.2,12.67c0,5.36,1.45,9.59,4.36,12.68c2.91,3.09,6.89,4.64,11.94,4.64
		c3.95,0,7.42-0.86,10.39-2.58v-2.13c-3.07,1.67-5.95,2.51-8.66,2.51c-4.14,0-7.38-1.34-9.7-4.01c-2.32-2.67-3.49-6.39-3.49-11.16
		c0-4.75,0.99-8.55,2.97-11.39c1.98-2.84,4.64-4.26,7.96-4.26c2.32,0,4.16,0.42,5.5,1.26c1.35,0.84,2.02,1.98,2.02,3.43
		c0.02,0.43,0.04,0.87,0.06,1.31l0.03,0.44h2.73v-6.29c-4.19-1.1-7.57-1.64-10.15-1.64C663.62,132.58,659.7,134.08,656.9,137.1
		 M596.69,142.15h-8.48v1.38l0.42,0.02c1.79,0.13,2.85,0.39,3.19,0.78s0.5,1.58,0.5,3.57v12.61c0,2-0.17,3.19-0.5,3.59
		c-0.33,0.39-1.4,0.65-3.19,0.77l-0.42,0.02v1.38h13.15v-1.38l-0.95-0.02c-1.78-0.1-2.84-0.36-3.19-0.76
		c-0.35-0.4-0.52-1.6-0.52-3.6v-11.79c1.41-2.35,3.21-3.53,5.4-3.53c0.55,0,0.88,0.13,1.01,0.39c0.13,0.26,0.27,1.08,0.43,2.45
		l0.02,0.4h2.47v-6.6c-0.55-0.16-1.04-0.24-1.49-0.24c-3.23,0-5.84,1.7-7.84,5.09V142.15z M434.06,151.85
		c0-2.71,0.49-4.87,1.46-6.48c0.97-1.61,2.28-2.42,3.92-2.42c1.64,0,2.83,0.62,3.55,1.87c0.73,1.24,1.09,3.26,1.09,6.06l-0.02,0.98
		H434.06z M432.1,145.06c-1.98,2.31-2.98,5.27-2.98,8.89c0,3.81,1.11,6.91,3.32,9.29c2.21,2.39,5.09,3.58,8.63,3.58
		c2.3,0,4.83-0.55,7.62-1.64v-2.24c-1.91,1.11-4.22,1.67-6.93,1.67c-2.58,0-4.52-0.96-5.83-2.88c-1.31-1.92-1.96-4.76-1.96-8.52
		h14.72v-0.42c0-3.59-0.77-6.35-2.32-8.29s-3.76-2.9-6.63-2.9C436.63,141.59,434.09,142.75,432.1,145.06 M406.34,159.27h-2.33v6.33
		c1.3,0.49,2.73,0.86,4.27,1.11c1.55,0.25,3.21,0.38,4.98,0.38c3.05,0,5.59-0.91,7.63-2.72c2.04-1.81,3.05-4.09,3.05-6.83
		c0-2.06-0.56-3.77-1.69-5.13s-3.3-2.96-6.53-4.8l-2.33-1.33c-1.78-1.01-3.01-1.98-3.69-2.93c-0.68-0.95-1.02-2.15-1.02-3.6
		c0-1.7,0.49-3.08,1.48-4.12c0.99-1.04,2.27-1.57,3.86-1.57c1.9,0,3.29,0.29,4.18,0.88c0.89,0.58,1.33,1.5,1.33,2.74
		c0,0.37,0.02,0.96,0.07,1.75l0.02,0.38h2.46v-5.84c-1.59-0.47-3.07-0.83-4.45-1.05c-1.38-0.23-2.67-0.34-3.85-0.34
		c-2.74,0-5.02,0.83-6.83,2.49c-1.81,1.66-2.72,3.75-2.72,6.29c0,3.36,2.52,6.46,7.55,9.3l2.33,1.33c2.06,1.16,3.44,2.22,4.15,3.2
		c0.71,0.98,1.07,2.29,1.07,3.95c0,1.97-0.56,3.51-1.67,4.63c-1.11,1.12-2.65,1.68-4.62,1.68c-1.9,0-3.63-0.49-5.2-1.47
		c-0.96-0.59-1.44-1.47-1.44-2.64c0-0.37-0.02-0.93-0.07-1.67L406.34,159.27z M347.52,128.52c7.39,0,13.86-1.6,19.42-4.81v-3.98
		c-5.73,3.13-11.12,4.69-16.18,4.69c-7.75,0-13.79-2.5-18.14-7.49c-4.34-4.99-6.52-11.94-6.52-20.85c0-8.88,1.85-15.98,5.55-21.29
		c3.7-5.31,8.66-7.97,14.88-7.97c4.34,0,7.76,0.78,10.28,2.34c2.52,1.56,3.77,3.7,3.77,6.41c0.04,0.8,0.07,1.62,0.11,2.45l0.05,0.83
		h5.1V67.1c-7.83-2.05-14.15-3.07-18.96-3.07c-9.43,0-16.77,2.82-21.99,8.45c-5.23,5.63-7.84,13.52-7.84,23.67
		c0,10.02,2.72,17.91,8.15,23.7C330.65,125.63,338.08,128.52,347.52,128.52 M401.62,126.99h23.53v-2.57l-0.75-0.04
		c-3.54-0.25-5.53-0.64-5.98-1.16c-0.44-0.53-0.76-2.85-0.95-6.97V95.21c0-4.46-1.09-7.96-3.28-10.51
		c-2.21-2.55-5.26-3.82-9.13-3.82c-3.35,0-6.38,0.79-9.09,2.37c-2.71,1.58-5.1,3.95-7.18,7.1V61.46h-15.85v2.57l0.79,0.04
		c3.35,0.22,5.33,0.7,5.95,1.43c0.62,0.73,0.93,2.97,0.93,6.7v44.03c0,3.74-0.31,5.97-0.93,6.7c-0.62,0.73-2.61,1.21-5.95,1.43
		l-0.79,0.04v2.57h23.53v-2.57l-0.78-0.04c-3.38-0.22-5.38-0.69-5.99-1.41c-0.61-0.72-0.91-2.96-0.91-6.72V93.09
		c2.68-2.33,5.16-4.06,7.43-5.21c2.27-1.15,4.32-1.72,6.14-1.72c2.6,0,4.41,0.76,5.42,2.27c1.01,1.51,1.52,4.2,1.52,8.08v19.74
		c-0.19,4.12-0.51,6.45-0.96,6.97c-0.44,0.52-2.43,0.91-5.98,1.16l-0.75,0.04V126.99z M438.05,100.05c0-5.06,0.91-9.1,2.72-12.12
		c1.81-3.01,4.25-4.52,7.33-4.52c3.07,0,5.28,1.16,6.64,3.49c1.35,2.32,2.03,6.1,2.03,11.33l-0.04,1.83H438.05z M451.16,128.02
		c4.29,0,9.03-1.02,14.23-3.07v-4.19c-3.57,2.07-7.88,3.11-12.95,3.11c-4.81,0-8.45-1.79-10.89-5.37
		c-2.45-3.58-3.67-8.89-3.67-15.91h27.51v-0.79c0-6.71-1.45-11.87-4.34-15.49c-2.89-3.62-7.02-5.43-12.39-5.43
		c-5.81,0-10.57,2.16-14.28,6.48c-3.71,4.32-5.56,9.86-5.56,16.61c0,7.12,2.07,12.9,6.2,17.36
		C439.17,125.79,444.55,128.02,451.16,128.02 M472.76,142.68c-2.9-0.73-5.25-1.09-7.04-1.09c-3.51,0-6.32,1.14-8.43,3.41
		c-2.11,2.27-3.17,5.3-3.17,9.08c0,3.78,1.1,6.85,3.29,9.2c2.19,2.36,5.05,3.53,8.57,3.53c2.21,0,4.46-0.46,6.77-1.38v-1.91
		c-1.67,0.74-3.6,1.11-5.8,1.11c-2.55,0-4.56-0.97-6.04-2.91c-1.48-1.94-2.22-4.6-2.22-7.96c0-3.29,0.62-5.9,1.88-7.83
		c1.25-1.93,2.93-2.89,5.05-2.89c2.92,0,4.38,1.66,4.38,4.97l0.02,0.4h2.73V142.68z M471.71,126.99h23.53v-2.57l-0.78-0.04
		c-3.38-0.22-5.38-0.69-5.99-1.41c-0.6-0.72-0.91-2.96-0.91-6.72V61.46h-15.85v2.57l0.79,0.04c3.35,0.22,5.33,0.7,5.95,1.43
		c0.62,0.73,0.93,2.97,0.93,6.7v44.03c0,3.74-0.31,5.97-0.93,6.7c-0.62,0.73-2.61,1.21-5.95,1.43l-0.79,0.04V126.99z M494.5,154.21
		c0,3.25-0.65,5.94-1.96,8.07c-1.3,2.13-2.94,3.19-4.92,3.19c-1.97,0-3.61-1.06-4.9-3.19c-1.3-2.13-1.95-4.82-1.95-8.07
		c0-3.22,0.65-5.9,1.96-8.04c1.3-2.14,2.94-3.21,4.89-3.21c1.97,0,3.61,1.07,4.92,3.21C493.85,148.31,494.5,150.99,494.5,154.21
		 M496.06,163.43c2.06-2.26,3.09-5.34,3.09-9.23s-1.03-6.97-3.08-9.22c-2.05-2.25-4.86-3.38-8.43-3.38c-3.55,0-6.36,1.13-8.42,3.38
		c-2.06,2.25-3.09,5.33-3.09,9.22s1.03,6.98,3.09,9.23c2.06,2.26,4.86,3.39,8.42,3.39C491.19,166.82,494,165.69,496.06,163.43
		 M514.78,85.28h12.57v-3.36h-12.57V71.71l-8.18,2.03v8.17h-6.64v3.36h6.64v27.64c0,5.26,1.1,9.09,3.3,11.49
		c2.2,2.41,5.69,3.61,10.48,3.61c1.88,0,3.86-0.43,5.93-1.29v-3.32c-1.86,0.86-3.44,1.29-4.75,1.29c-2.47,0-4.22-0.82-5.25-2.45
		c-1.03-1.63-1.54-4.39-1.54-8.26V85.28z M517.74,166.27h12.59v-1.38l-0.4-0.02c-1.89-0.13-2.96-0.34-3.2-0.62
		c-0.24-0.28-0.41-1.52-0.51-3.73v-11.25c0-2.39-0.58-4.26-1.75-5.62c-1.18-1.36-2.81-2.05-4.89-2.05c-1.79,0-3.41,0.42-4.86,1.27
		c-1.45,0.84-2.73,2.11-3.84,3.8v-4.51h-8.48v1.38l0.42,0.02c1.79,0.13,2.85,0.39,3.19,0.78s0.5,1.58,0.5,3.57v12.61
		c0,2-0.17,3.19-0.5,3.59c-0.33,0.39-1.39,0.65-3.19,0.77l-0.42,0.02v1.38h12.59v-1.38l-0.42-0.02c-1.81-0.12-2.88-0.37-3.2-0.76
		c-0.32-0.38-0.49-1.58-0.49-3.6v-12.39c1.44-1.24,2.76-2.17,3.97-2.79c1.21-0.61,2.31-0.92,3.29-0.92c1.39,0,2.36,0.4,2.9,1.21
		c0.54,0.81,0.81,2.25,0.81,4.33v10.56c-0.1,2.21-0.27,3.45-0.51,3.73c-0.24,0.28-1.3,0.49-3.2,0.62l-0.4,0.02V166.27z
		 M538.34,153.72c0-3.24,0.51-5.66,1.52-7.27c1.02-1.61,2.54-2.42,4.57-2.42c1.08,0,2.18,0.21,3.29,0.63
		c1.11,0.42,2.24,1.07,3.38,1.92v13.62c-0.95,1.26-1.99,2.21-3.14,2.84c-1.14,0.63-2.38,0.95-3.72,0.95c-1.97,0-3.45-0.86-4.44-2.57
		C538.84,159.72,538.34,157.14,538.34,153.72 M536.48,145.23c-1.85,2.42-2.78,5.65-2.78,9.68c0,3.63,0.81,6.52,2.42,8.68
		c1.62,2.16,3.79,3.23,6.52,3.23c1.75,0,3.33-0.43,4.75-1.27s2.66-2.11,3.72-3.8v4.51h8.48v-1.38l-0.42-0.02
		c-1.82-0.12-2.89-0.37-3.21-0.76c-0.32-0.38-0.48-1.58-0.48-3.6V131.2H547v1.38l0.42,0.02c1.82,0.12,2.89,0.37,3.21,0.74
		c0.32,0.38,0.48,1.58,0.48,3.61v7.93c-1.01-1.1-2.12-1.92-3.32-2.47c-1.21-0.55-2.52-0.82-3.92-0.82
		C540.79,141.59,538.33,142.8,536.48,145.23 M543,100.05c0-5.06,0.91-9.1,2.72-12.12c1.81-3.01,4.25-4.52,7.32-4.52
		c3.07,0,5.28,1.16,6.64,3.49c1.36,2.32,2.03,6.1,2.03,11.33l-0.04,1.83H543z M556.11,128.02c4.29,0,9.03-1.02,14.23-3.07v-4.19
		c-3.57,2.07-7.88,3.11-12.95,3.11c-4.81,0-8.45-1.79-10.89-5.37c-2.45-3.58-3.67-8.89-3.67-15.91h27.51v-0.79
		c0-6.71-1.45-11.87-4.34-15.49s-7.02-5.43-12.39-5.43c-5.81,0-10.57,2.16-14.28,6.48c-3.71,4.32-5.56,9.86-5.56,16.61
		c0,7.12,2.07,12.9,6.2,17.36C544.12,125.79,549.5,128.02,556.11,128.02 M577.43,162.47c-1.73,1.17-3.23,1.75-4.51,1.75
		c-1.35,0-2.47-0.46-3.38-1.38c-0.9-0.92-1.35-2.08-1.35-3.48c0-1.87,0.73-3.35,2.18-4.42c1.45-1.07,3.46-1.61,6.04-1.61h1.02
		V162.47z M573.94,141.59c-2.64,0-5.49,0.67-8.57,2.02v4.42h2.98l0.02-0.42c0.16-1.55,0.55-2.58,1.15-3.09
		c1.04-0.83,2.23-1.24,3.58-1.24c2.89,0,4.33,1.9,4.33,5.71v3h-0.91c-4.84,0-8.28,0.82-10.3,2.45c-1.78,1.42-2.67,3.28-2.67,5.56
		c0,1.96,0.68,3.58,2.05,4.88c1.36,1.3,3.07,1.95,5.11,1.95c2.55,0,5.13-1.28,7.73-3.85c0.58,2.57,1.94,3.85,4.1,3.85
		c0.83,0,1.77-0.18,2.82-0.56l-0.13-1.65c-0.49,0.13-0.88,0.2-1.18,0.2c-0.83,0-1.41-0.39-1.74-1.18c-0.33-0.79-0.5-2.14-0.5-4.07
		v-10.76C581.8,144,579.18,141.59,573.94,141.59 M606.19,126.99h23.53v-2.57l-0.75-0.04c-3.54-0.25-5.53-0.64-5.98-1.16
		c-0.44-0.53-0.76-2.85-0.95-6.97V95.21c0-4.46-1.09-7.96-3.28-10.51c-2.21-2.55-5.26-3.82-9.13-3.82c-3.35,0-6.38,0.79-9.09,2.37
		c-2.71,1.58-5.1,3.95-7.18,7.1v-8.43h-15.85v2.57l0.79,0.04c3.35,0.25,5.33,0.73,5.95,1.45c0.62,0.72,0.93,2.95,0.93,6.68v23.57
		c0,3.74-0.31,5.97-0.93,6.7c-0.62,0.73-2.61,1.21-5.95,1.43l-0.79,0.04v2.57h23.53v-2.57l-0.78-0.04
		c-3.39-0.22-5.38-0.69-5.98-1.41c-0.61-0.72-0.91-2.96-0.91-6.72V93.09c2.68-2.33,5.16-4.06,7.43-5.21
		c2.27-1.15,4.32-1.72,6.14-1.72c2.6,0,4.41,0.76,5.42,2.27c1.01,1.51,1.51,4.2,1.51,8.08v19.74c-0.19,4.12-0.51,6.45-0.95,6.97
		c-0.44,0.52-2.43,0.91-5.98,1.16l-0.75,0.04V126.99z M633.45,143.55l0.42-0.02v-1.38h-7.16v1.38h0.6c1.79,0,2.69,0.32,2.69,0.96
		c0,0.39-0.42,1.53-1.27,3.44l-5.78,13.01l-5.39-12.95c-0.84-2.17-1.27-3.39-1.27-3.66c0-0.53,1.01-0.8,3.02-0.8h0.47v-1.38h-11.03
		v1.38l0.44,0.02c0.8,0.05,1.39,0.31,1.78,0.79c0.39,0.48,0.98,1.7,1.78,3.65l7.61,18.28l-7.92,8.77h5.52l12.29-27.07
		c0.45-0.99,0.73-1.63,0.85-1.91C631.75,144.44,632.54,143.61,633.45,143.55 M662.9,126.99h23.53v-2.57l-0.75-0.04
		c-3.54-0.25-5.53-0.64-5.98-1.16c-0.44-0.53-0.76-2.85-0.96-6.97V95.21c0-4.46-1.09-7.96-3.28-10.51
		c-2.21-2.55-5.26-3.82-9.13-3.82c-3.35,0-6.38,0.79-9.09,2.37c-2.71,1.58-5.1,3.95-7.18,7.1V61.46h-15.85v2.57l0.79,0.04
		c3.35,0.22,5.33,0.7,5.96,1.43c0.62,0.73,0.93,2.97,0.93,6.7v44.03c0,3.74-0.31,5.97-0.93,6.7c-0.62,0.73-2.61,1.21-5.96,1.43
		l-0.79,0.04v2.57h23.53v-2.57l-0.78-0.04c-3.39-0.22-5.38-0.69-5.99-1.41c-0.6-0.72-0.91-2.96-0.91-6.72V93.09
		c2.68-2.33,5.16-4.06,7.43-5.21c2.27-1.15,4.32-1.72,6.14-1.72c2.6,0,4.4,0.76,5.41,2.27c1.01,1.51,1.52,4.2,1.52,8.08v19.74
		c-0.19,4.12-0.51,6.45-0.95,6.97c-0.44,0.52-2.43,0.91-5.98,1.16l-0.75,0.04V126.99z M716.52,119.89
		c-3.24,2.18-6.05,3.28-8.42,3.28c-2.52,0-4.62-0.86-6.31-2.58c-1.69-1.72-2.53-3.89-2.53-6.5c0-3.5,1.35-6.25,4.07-8.25
		c2.71-2,6.47-3,11.29-3h1.91V119.89z M726.06,128.02c1.55,0,3.31-0.35,5.27-1.04l-0.25-3.08c-0.91,0.25-1.65,0.38-2.2,0.38
		c-1.55,0-2.64-0.73-3.26-2.2c-0.62-1.47-0.93-4-0.93-7.6v-20.1c0-9-4.9-13.5-14.69-13.5c-4.92,0-10.27,1.26-16.02,3.78v8.26h5.56
		l0.04-0.79c0.3-2.9,1.02-4.83,2.16-5.77c1.94-1.55,4.16-2.32,6.68-2.32c5.4,0,8.09,3.55,8.09,10.67v5.6h-1.7
		c-9.05,0-15.47,1.52-19.26,4.57c-3.32,2.66-4.98,6.12-4.98,10.39c0,3.66,1.27,6.7,3.82,9.12c2.55,2.43,5.73,3.64,9.55,3.64
		c4.76,0,9.58-2.4,14.45-7.2C719.48,125.62,722.04,128.02,726.06,128.02 M736.9,164.87c-1.81-0.12-2.88-0.37-3.2-0.76
		c-0.32-0.38-0.49-1.58-0.49-3.6V131.2h-8.48v1.38l0.42,0.02c1.79,0.12,2.85,0.37,3.19,0.77c0.33,0.39,0.5,1.59,0.5,3.59v23.56
		c0,2-0.17,3.19-0.5,3.59c-0.33,0.39-1.4,0.65-3.19,0.77l-0.42,0.02v1.38h12.59v-1.38L736.9,164.87z M814.2,126.99v-2.57l-0.79-0.04
		c-3.4-0.25-5.4-0.73-6-1.43c-0.59-0.71-0.89-2.94-0.89-6.7V94.18c0-8.86-4.04-13.29-12.12-13.29c-2.71,0-5.41,0.79-8.09,2.36
		c-2.68,1.57-5.34,3.93-7.97,7.07c-0.55-3.14-1.8-5.5-3.73-7.07c-1.93-1.57-4.54-2.36-7.83-2.36c-2.82,0-5.52,0.79-8.1,2.36
		c-2.58,1.57-5.06,3.93-7.44,7.07v-8.39h-15.85v2.57l0.79,0.04c3.35,0.25,5.33,0.73,5.95,1.45c0.62,0.72,0.93,2.95,0.93,6.68v23.57
		c0,3.74-0.31,5.97-0.93,6.7c-0.62,0.73-2.61,1.21-5.95,1.43l-0.79,0.04v2.57h23.53v-2.57l-0.78-0.04
		c-3.38-0.22-5.38-0.69-5.99-1.41c-0.61-0.72-0.91-2.96-0.91-6.72v-23.1c2.27-2.33,4.51-4.07,6.72-5.24
		c2.21-1.17,4.4-1.75,6.56-1.75c2.3,0,3.9,0.7,4.81,2.1c0.91,1.4,1.37,3.86,1.37,7.39v20.6c0,3.76-0.3,6-0.89,6.72
		c-0.59,0.72-2.59,1.19-6,1.41l-0.79,0.04v2.57h23.53v-2.57l-0.79-0.04c-3.38-0.22-5.37-0.7-5.98-1.43
		c-0.61-0.73-0.91-2.97-0.91-6.7v-23.1c2.39-2.33,4.67-4.07,6.84-5.24c2.18-1.17,4.26-1.75,6.26-1.75c2.38,0,4.04,0.69,4.97,2.06
		c0.93,1.37,1.39,3.85,1.39,7.43v20.6c0,3.76-0.3,6-0.89,6.7c-0.59,0.71-2.59,1.18-6,1.43l-0.79,0.04v2.57H814.2z"/>
</g>
</svg>
